<svg version="1.1" xmlns="http://www.w3.org/2000/svg" xmlns:xlink="http://www.w3.org/1999/xlink" width="13.232000350952148" height="29.070999145507812" enable-background="new 0 0 13.232 29.071" xml:space="preserve" style=""><rect id="backgroundrect" width="100%" height="100%" x="0" y="0" fill="none" stroke="none"/>

<g class="currentLayer" style=""><title>Layer 1</title><path fill="#7c7c80" stroke="#19191A" stroke-miterlimit="10" d="M12.732,11.998c0,0-4.379-11.498-6.143-11.498  S0.5,11.998,0.5,11.998v14.249h0.003C0.502,26.268,0.5,26.288,0.5,26.309c0,1.249,1.013,2.263,2.263,2.263  c1.25,0,2.263-1.014,2.263-2.263c0-0.021-0.003-0.041-0.003-0.062h3.186c0,0.021-0.003,0.041-0.003,0.062  c0,1.249,1.013,2.263,2.263,2.263s2.264-1.014,2.264-2.263c0-0.021-0.003-0.041-0.004-0.062h0.004V11.998z M6.616,21.385  c-1.25,0-2.263-1.013-2.263-2.263c0-1.249,1.013-2.262,2.263-2.262c1.249,0,2.263,1.013,2.263,2.262  C8.878,20.372,7.865,21.385,6.616,21.385z" id="svg_1" class="selected" fill-opacity="1"/></g></svg>